<svg width="60" height="34" viewBox="0 0 60 34" fill="none" xmlns="http://www.w3.org/2000/svg">
<g filter="url(#filter0_d_38_136)">
<line x1="16.6117" y1="24.2857" x2="55.2857" y2="24.2857" stroke="#9165FF" stroke-width="2"/>
<path d="M16.7857 25.2857C23.6893 25.2857 29.2857 19.6893 29.2857 12.7857C29.2857 5.88214 23.6893 0.285706 16.7857 0.285706C9.88215 0.285706 4.28571 5.88214 4.28571 12.7857C4.28571 19.6893 9.88215 25.2857 16.7857 25.2857Z" fill="#9165FF"/>
<path d="M17 23C22.5228 23 27 18.5228 27 13C27 7.47715 22.5228 3 17 3C11.4772 3 7 7.47715 7 13C7 18.5228 11.4772 23 17 23Z" fill="white"/>
<path d="M18.8162 6.22481V15.9004C18.8148 16.8297 18.4915 17.7235 17.9125 18.399C17.3335 19.0745 16.5423 19.4808 15.7007 19.5349V9.85939C15.7022 8.92998 16.0255 8.03623 16.6045 7.36072C17.1835 6.68522 17.9746 6.27892 18.8162 6.22481ZM19.005 6.00833C18.0786 6.00833 17.1902 6.41406 16.5351 7.13627C15.88 7.85848 15.5119 8.83803 15.5119 9.85939V19.7389C16.4384 19.7389 17.3269 19.3331 17.982 18.611C18.637 17.8887 19.005 16.9092 19.005 15.8878V6V6.00833Z" fill="#0E1F2F"/>
<path d="M11.8605 16.3415L18.0937 9.49984C18.6934 8.84379 19.4978 8.46272 20.3424 8.43446C21.187 8.40622 22.0082 8.73292 22.6381 9.34787L16.405 16.1895C15.8052 16.8455 15.0008 17.2266 14.1562 17.2549C13.3116 17.2831 12.4905 16.9564 11.8605 16.3415ZM11.5875 16.348C12.2426 17.067 13.1322 17.4697 14.0607 17.4675C14.9892 17.4652 15.8805 17.0582 16.5385 16.336L22.903 9.35016C22.248 8.63112 21.3583 8.22844 20.4298 8.23067C19.5013 8.23293 18.6101 8.63991 17.9521 9.36215L11.5822 16.3539L11.5875 16.348Z" fill="#0E1F2F"/>
<path d="M20.4217 18.7595L14.1885 11.9179C13.5908 11.2595 13.2437 10.3767 13.2179 9.44961C13.1922 8.52257 13.4898 7.62125 14.0501 6.92981L20.2832 13.7714C20.8809 14.4298 21.2281 15.3126 21.2539 16.2397C21.2796 17.1667 20.9819 18.068 20.4217 18.7595ZM20.4276 19.0591C21.0827 18.3401 21.4496 17.3636 21.4475 16.3445C21.4455 15.3254 21.0747 14.3471 20.4167 13.6249L14.0522 6.63901C13.3971 7.35804 13.0302 8.33455 13.0322 9.35366C13.0343 10.3728 13.4051 11.351 14.0631 12.0733L20.433 19.065L20.4276 19.0591Z" fill="#0E1F2F"/>
<path d="M11.2048 11.1596H20.0198C20.8666 11.1612 21.6808 11.5161 22.2963 12.1516C22.9117 12.7872 23.2819 13.6555 23.3311 14.5792H14.5161C13.6694 14.5777 12.8551 14.2228 12.2397 13.5873C11.6243 12.9517 11.2541 12.0834 11.2048 11.1596ZM11.0076 10.9524C11.0076 11.9693 11.3772 12.9444 12.0352 13.6635C12.6932 14.3825 13.5856 14.7865 14.5161 14.7865H23.517C23.517 13.7696 23.1473 12.7944 22.4894 12.0754C21.8314 11.3563 20.939 10.9524 20.0084 10.9524H11H11.0076Z" fill="#0E1F2F"/>
</g>
<defs>
<filter id="filter0_d_38_136" x="0.285706" y="0.285706" width="59" height="33" filterUnits="userSpaceOnUse" color-interpolation-filters="sRGB">
<feFlood flood-opacity="0" result="BackgroundImageFix"/>
<feColorMatrix in="SourceAlpha" type="matrix" values="0 0 0 0 0 0 0 0 0 0 0 0 0 0 0 0 0 0 127 0" result="hardAlpha"/>
<feOffset dy="4"/>
<feGaussianBlur stdDeviation="2"/>
<feComposite in2="hardAlpha" operator="out"/>
<feColorMatrix type="matrix" values="0 0 0 0 0 0 0 0 0 0 0 0 0 0 0 0 0 0 0.25 0"/>
<feBlend mode="normal" in2="BackgroundImageFix" result="effect1_dropShadow_38_136"/>
<feBlend mode="normal" in="SourceGraphic" in2="effect1_dropShadow_38_136" result="shape"/>
</filter>
</defs>
</svg>
